# Wavefront OBJ file automatically generated by Tiled2Unity

# Vertices (Count = 472)
v 0 -96 0
v -96 -96 0
v -96 0 0
v 0 0 0
v -192 -96 0
v -192 0 0
v -288 -96 0
v -288 0 0
v -384 -96 0
v -384 0 0
v -480 -96 0
v -480 0 0
v -576 -96 0
v -576 0 0
v -672 -96 0
v -672 0 0
v -768 -96 0
v -768 0 0
v -864 -96 0
v -864 0 0
v -960 -96 0
v -960 0 0
v -1056 -96 0
v -1056 0 0
v -1152 -96 0
v -1152 0 0
v -1248 -96 0
v -1248 0 0
v -1344 -96 0
v -1344 0 0
v -1440 -96 0
v -1440 0 0
v -1536 -96 0
v -1536 0 0
v -1632 -96 0
v -1632 0 0
v -1728 -96 0
v -1728 0 0
v -1824 -96 0
v -1824 0 0
v -1920 -96 0
v -1920 0 0
v -2016 -96 0
v -2016 0 0
v -2112 -96 0
v -2112 0 0
v -2208 -96 0
v -2208 0 0
v -2304 -96 0
v -2304 0 0
v -2400 -96 0
v -2400 0 0
v -2496 -96 0
v -2496 0 0
v -2592 -96 0
v -2592 0 0
v -2688 -96 0
v -2688 0 0
v -2784 -96 0
v -2784 0 0
v -2880 -96 0
v -2880 0 0
v -2976 -96 0
v -2976 0 0
v -3072 -96 0
v -3072 0 0
v -3168 -96 0
v -3168 0 0
v -3264 -96 0
v -3264 0 0
v -3360 -96 0
v -3360 0 0
v -3456 -96 0
v -3456 0 0
v -3552 -96 0
v -3552 0 0
v -3648 -96 0
v -3648 0 0
v -3744 -96 0
v -3744 0 0
v -3840 -96 0
v -3840 0 0
v -3936 -96 0
v -3936 0 0
v -4032 -96 0
v -4032 0 0
v -4128 -96 0
v -4128 0 0
v -4224 -96 0
v -4224 0 0
v -4320 -96 0
v -4320 0 0
v -4416 -96 0
v -4416 0 0
v -4512 -96 0
v -4512 0 0
v -4608 -96 0
v -4608 0 0
v -4704 -96 0
v -4704 0 0
v -4800 -96 0
v -4800 0 0
v 0 -192 0
v -96 -192 0
v -192 -192 0
v -288 -192 0
v -384 -192 0
v -480 -192 0
v -576 -192 0
v -672 -192 0
v -768 -192 0
v -864 -192 0
v -960 -192 0
v -1056 -192 0
v -1152 -192 0
v -1248 -192 0
v -1344 -192 0
v -1440 -192 0
v -1536 -192 0
v -1632 -192 0
v -1728 -192 0
v -1824 -192 0
v -1920 -192 0
v -2016 -192 0
v -2112 -192 0
v -2208 -192 0
v -2304 -192 0
v -2400 -192 0
v -2496 -192 0
v -2592 -192 0
v -2688 -192 0
v -2784 -192 0
v -2880 -192 0
v -2976 -192 0
v -3072 -192 0
v -3168 -192 0
v -3264 -192 0
v -3360 -192 0
v -3456 -192 0
v -3552 -192 0
v -3648 -192 0
v -3744 -192 0
v -3840 -192 0
v -3936 -192 0
v -4032 -192 0
v -4128 -192 0
v -4224 -192 0
v -4320 -192 0
v -4416 -192 0
v -4512 -192 0
v -4608 -192 0
v -4704 -192 0
v -4800 -192 0
v 0 -288 0
v -96 -288 0
v -192 -288 0
v -4608 -288 0
v -4704 -288 0
v -4800 -288 0
v 0 -384 0
v -96 -384 0
v -192 -384 0
v -4608 -384 0
v -4704 -384 0
v -4800 -384 0
v 0 -480 0
v -96 -480 0
v -192 -480 0
v -4608 -480 0
v -4704 -480 0
v -4800 -480 0
v 0 -576 0
v -96 -576 0
v -192 -576 0
v -4608 -576 0
v -4704 -576 0
v -4800 -576 0
v 0 -672 0
v -96 -672 0
v -192 -672 0
v -4608 -672 0
v -4704 -672 0
v -4800 -672 0
v 0 -768 0
v -96 -768 0
v -192 -768 0
v -4608 -768 0
v -4704 -768 0
v -4800 -768 0
v 0 -864 0
v -96 -864 0
v -192 -864 0
v -4608 -864 0
v -4704 -864 0
v -4800 -864 0
v 0 -960 0
v -96 -960 0
v -192 -960 0
v -4608 -960 0
v -4704 -960 0
v -4800 -960 0
v 0 -1056 0
v -96 -1056 0
v -192 -1056 0
v -4608 -1056 0
v -4704 -1056 0
v -4800 -1056 0
v 0 -1152 0
v -96 -1152 0
v -192 -1152 0
v -4608 -1152 0
v -4704 -1152 0
v -4800 -1152 0
v 0 -1248 0
v -96 -1248 0
v -192 -1248 0
v -4608 -1248 0
v -4704 -1248 0
v -4800 -1248 0
v 0 -1344 0
v -96 -1344 0
v -192 -1344 0
v -4608 -1344 0
v -4704 -1344 0
v -4800 -1344 0
v 0 -1440 0
v -96 -1440 0
v -192 -1440 0
v -4608 -1440 0
v -4704 -1440 0
v -4800 -1440 0
v 0 -1536 0
v -96 -1536 0
v -192 -1536 0
v -4608 -1536 0
v -4704 -1536 0
v -4800 -1536 0
v 0 -1632 0
v -96 -1632 0
v -192 -1632 0
v -4608 -1632 0
v -4704 -1632 0
v -4800 -1632 0
v 0 -1728 0
v -96 -1728 0
v -192 -1728 0
v -4608 -1728 0
v -4704 -1728 0
v -4800 -1728 0
v 0 -1824 0
v -96 -1824 0
v -192 -1824 0
v -4608 -1824 0
v -4704 -1824 0
v -4800 -1824 0
v 0 -1920 0
v -96 -1920 0
v -192 -1920 0
v -4608 -1920 0
v -4704 -1920 0
v -4800 -1920 0
v 0 -2016 0
v -96 -2016 0
v -192 -2016 0
v -4608 -2016 0
v -4704 -2016 0
v -4800 -2016 0
v 0 -2112 0
v -96 -2112 0
v -192 -2112 0
v -4608 -2112 0
v -4704 -2112 0
v -4800 -2112 0
v 0 -2208 0
v -96 -2208 0
v -192 -2208 0
v -4608 -2208 0
v -4704 -2208 0
v -4800 -2208 0
v 0 -2304 0
v -96 -2304 0
v -192 -2304 0
v -4608 -2304 0
v -4704 -2304 0
v -4800 -2304 0
v 0 -2400 0
v -96 -2400 0
v -192 -2400 0
v -4608 -2400 0
v -4704 -2400 0
v -4800 -2400 0
v 0 -2496 0
v -96 -2496 0
v -192 -2496 0
v -4608 -2496 0
v -4704 -2496 0
v -4800 -2496 0
v 0 -2592 0
v -96 -2592 0
v -192 -2592 0
v -4608 -2592 0
v -4704 -2592 0
v -4800 -2592 0
v 0 -2688 0
v -96 -2688 0
v -192 -2688 0
v -288 -2688 0
v -288 -2592 0
v -384 -2688 0
v -384 -2592 0
v -480 -2688 0
v -480 -2592 0
v -576 -2688 0
v -576 -2592 0
v -672 -2688 0
v -672 -2592 0
v -768 -2688 0
v -768 -2592 0
v -864 -2688 0
v -864 -2592 0
v -960 -2688 0
v -960 -2592 0
v -3840 -2688 0
v -3936 -2688 0
v -3936 -2592 0
v -3840 -2592 0
v -4032 -2688 0
v -4032 -2592 0
v -4128 -2688 0
v -4128 -2592 0
v -4224 -2688 0
v -4224 -2592 0
v -4320 -2688 0
v -4320 -2592 0
v -4416 -2688 0
v -4416 -2592 0
v -4512 -2688 0
v -4512 -2592 0
v -4608 -2688 0
v -4704 -2688 0
v -4800 -2688 0
v 0 -2784 0
v -96 -2784 0
v -192 -2784 0
v -288 -2784 0
v -384 -2784 0
v -480 -2784 0
v -576 -2784 0
v -672 -2784 0
v -768 -2784 0
v -864 -2784 0
v -960 -2784 0
v -1056 -2784 0
v -1056 -2688 0
v -1152 -2784 0
v -1152 -2688 0
v -1248 -2784 0
v -1248 -2688 0
v -1344 -2784 0
v -1344 -2688 0
v -1440 -2784 0
v -1440 -2688 0
v -1536 -2784 0
v -1536 -2688 0
v -1632 -2784 0
v -1632 -2688 0
v -1728 -2784 0
v -1728 -2688 0
v -1824 -2784 0
v -1824 -2688 0
v -1920 -2784 0
v -1920 -2688 0
v -2016 -2784 0
v -2016 -2688 0
v -2112 -2784 0
v -2112 -2688 0
v -2208 -2784 0
v -2208 -2688 0
v -2304 -2784 0
v -2304 -2688 0
v -2400 -2784 0
v -2400 -2688 0
v -2496 -2784 0
v -2496 -2688 0
v -2592 -2784 0
v -2592 -2688 0
v -2688 -2784 0
v -2688 -2688 0
v -2784 -2784 0
v -2784 -2688 0
v -2880 -2784 0
v -2880 -2688 0
v -2976 -2784 0
v -2976 -2688 0
v -3072 -2784 0
v -3072 -2688 0
v -3168 -2784 0
v -3168 -2688 0
v -3264 -2784 0
v -3264 -2688 0
v -3360 -2784 0
v -3360 -2688 0
v -3456 -2784 0
v -3456 -2688 0
v -3552 -2784 0
v -3552 -2688 0
v -3648 -2784 0
v -3648 -2688 0
v -3744 -2784 0
v -3744 -2688 0
v -3840 -2784 0
v -3936 -2784 0
v -4032 -2784 0
v -4128 -2784 0
v -4224 -2784 0
v -4320 -2784 0
v -4416 -2784 0
v -4512 -2784 0
v -4608 -2784 0
v -4704 -2784 0
v -4800 -2784 0
v 0 -2880 0
v -96 -2880 0
v -192 -2880 0
v -288 -2880 0
v -384 -2880 0
v -480 -2880 0
v -576 -2880 0
v -672 -2880 0
v -768 -2880 0
v -864 -2880 0
v -960 -2880 0
v -1056 -2880 0
v -1152 -2880 0
v -1248 -2880 0
v -1344 -2880 0
v -1440 -2880 0
v -1536 -2880 0
v -1632 -2880 0
v -1728 -2880 0
v -1824 -2880 0
v -1920 -2880 0
v -2016 -2880 0
v -2112 -2880 0
v -2208 -2880 0
v -2304 -2880 0
v -2400 -2880 0
v -2496 -2880 0
v -2592 -2880 0
v -2688 -2880 0
v -2784 -2880 0
v -2880 -2880 0
v -2976 -2880 0
v -3072 -2880 0
v -3168 -2880 0
v -3264 -2880 0
v -3360 -2880 0
v -3456 -2880 0
v -3552 -2880 0
v -3648 -2880 0
v -3744 -2880 0
v -3840 -2880 0
v -3936 -2880 0
v -4032 -2880 0
v -4128 -2880 0
v -4224 -2880 0
v -4320 -2880 0
v -4416 -2880 0
v -4512 -2880 0
v -4608 -2880 0
v -4704 -2880 0
v -4800 -2880 0

# Texture Coorindates (Count = 64)
vt 0.0001220703 0.6667888
vt 0.1998779 0.6667888
vt 0.1998779 0.9998779
vt 0.0001220703 0.9998779
vt 0.2001221 0.6667888
vt 0.3998779 0.6667888
vt 0.3998779 0.9998779
vt 0.2001221 0.9998779
vt 0.4001221 0.6667888
vt 0.599878 0.6667888
vt 0.599878 0.9998779
vt 0.4001221 0.9998779
vt 0.0001220703 0.3334554
vt 0.1998779 0.3334554
vt 0.1998779 0.6665446
vt 0.0001220703 0.6665446
vt 0.6001221 0.6667888
vt 0.7998779 0.6667888
vt 0.7998779 0.9998779
vt 0.6001221 0.9998779
vt 0.2001221 0.0001220703
vt 0.3998779 0.0001220703
vt 0.3998779 0.3332113
vt 0.2001221 0.3332113
vt 0.8001221 0.6667888
vt 0.9998779 0.6667888
vt 0.9998779 0.9998779
vt 0.8001221 0.9998779
vt 0.4001221 0.3334554
vt 0.599878 0.3334554
vt 0.599878 0.6665446
vt 0.4001221 0.6665446
vt 0.6001221 0.3334554
vt 0.7998779 0.3334554
vt 0.7998779 0.6665446
vt 0.6001221 0.6665446
vt 0.8001221 0.3334554
vt 0.9998779 0.3334554
vt 0.9998779 0.6665446
vt 0.8001221 0.6665446
vt 0.2001221 0.3334554
vt 0.3998779 0.3334554
vt 0.3998779 0.6665446
vt 0.2001221 0.6665446
vt 0.0001220703 0.2001221
vt 0.2498779 0.2001221
vt 0.2498779 0.3998779
vt 0.0001220703 0.3998779
vt 0.2501221 0.8001221
vt 0.4998779 0.8001221
vt 0.4998779 0.9998779
vt 0.2501221 0.9998779
vt 0.2501221 0.2001221
vt 0.4998779 0.2001221
vt 0.4998779 0.3998779
vt 0.2501221 0.3998779
vt 0.0001220703 0.0001220703
vt 0.1998779 0.0001220703
vt 0.1998779 0.3332113
vt 0.0001220703 0.3332113
vt 0.4001221 0.0001220703
vt 0.599878 0.0001220703
vt 0.599878 0.3332113
vt 0.4001221 0.3332113

# Normal
vn 0 0 -1

# Groups (Count = 2)
g mesh_[00]_[00]
f  1/1/1  2/2/1  3/3/1  4/4/1 
f  2/5/1  5/6/1  6/7/1  3/8/1 
f  5/5/1  7/6/1  8/7/1  6/8/1 
f  7/5/1  9/6/1  10/7/1  8/8/1 
f  9/5/1  11/6/1  12/7/1  10/8/1 
f  11/5/1  13/6/1  14/7/1  12/8/1 
f  13/5/1  15/6/1  16/7/1  14/8/1 
f  15/5/1  17/6/1  18/7/1  16/8/1 
f  17/5/1  19/6/1  20/7/1  18/8/1 
f  19/5/1  21/6/1  22/7/1  20/8/1 
f  21/5/1  23/6/1  24/7/1  22/8/1 
f  23/5/1  25/6/1  26/7/1  24/8/1 
f  25/5/1  27/6/1  28/7/1  26/8/1 
f  27/5/1  29/6/1  30/7/1  28/8/1 
f  29/5/1  31/6/1  32/7/1  30/8/1 
f  31/5/1  33/6/1  34/7/1  32/8/1 
f  33/5/1  35/6/1  36/7/1  34/8/1 
f  35/5/1  37/6/1  38/7/1  36/8/1 
f  37/5/1  39/6/1  40/7/1  38/8/1 
f  39/5/1  41/6/1  42/7/1  40/8/1 
f  41/5/1  43/6/1  44/7/1  42/8/1 
f  43/5/1  45/6/1  46/7/1  44/8/1 
f  45/5/1  47/6/1  48/7/1  46/8/1 
f  47/5/1  49/6/1  50/7/1  48/8/1 
f  49/5/1  51/6/1  52/7/1  50/8/1 
f  51/5/1  53/6/1  54/7/1  52/8/1 
f  53/5/1  55/6/1  56/7/1  54/8/1 
f  55/5/1  57/6/1  58/7/1  56/8/1 
f  57/5/1  59/6/1  60/7/1  58/8/1 
f  59/5/1  61/6/1  62/7/1  60/8/1 
f  61/5/1  63/6/1  64/7/1  62/8/1 
f  63/5/1  65/6/1  66/7/1  64/8/1 
f  65/5/1  67/6/1  68/7/1  66/8/1 
f  67/5/1  69/6/1  70/7/1  68/8/1 
f  69/5/1  71/6/1  72/7/1  70/8/1 
f  71/5/1  73/6/1  74/7/1  72/8/1 
f  73/5/1  75/6/1  76/7/1  74/8/1 
f  75/5/1  77/6/1  78/7/1  76/8/1 
f  77/5/1  79/6/1  80/7/1  78/8/1 
f  79/5/1  81/6/1  82/7/1  80/8/1 
f  81/5/1  83/6/1  84/7/1  82/8/1 
f  83/5/1  85/6/1  86/7/1  84/8/1 
f  85/5/1  87/6/1  88/7/1  86/8/1 
f  87/5/1  89/6/1  90/7/1  88/8/1 
f  89/5/1  91/6/1  92/7/1  90/8/1 
f  91/5/1  93/6/1  94/7/1  92/8/1 
f  93/5/1  95/6/1  96/7/1  94/8/1 
f  95/5/1  97/6/1  98/7/1  96/8/1 
f  97/5/1  99/6/1  100/7/1  98/8/1 
f  99/9/1  101/10/1  102/11/1  100/12/1 
f  103/13/1  104/14/1  2/15/1  1/16/1 
f  104/17/1  105/18/1  5/19/1  2/20/1 
f  105/21/1  106/22/1  7/23/1  5/24/1 
f  106/21/1  107/22/1  9/23/1  7/24/1 
f  107/21/1  108/22/1  11/23/1  9/24/1 
f  108/21/1  109/22/1  13/23/1  11/24/1 
f  109/21/1  110/22/1  15/23/1  13/24/1 
f  110/21/1  111/22/1  17/23/1  15/24/1 
f  111/21/1  112/22/1  19/23/1  17/24/1 
f  112/21/1  113/22/1  21/23/1  19/24/1 
f  113/21/1  114/22/1  23/23/1  21/24/1 
f  114/21/1  115/22/1  25/23/1  23/24/1 
f  115/21/1  116/22/1  27/23/1  25/24/1 
f  116/21/1  117/22/1  29/23/1  27/24/1 
f  117/21/1  118/22/1  31/23/1  29/24/1 
f  118/21/1  119/22/1  33/23/1  31/24/1 
f  119/21/1  120/22/1  35/23/1  33/24/1 
f  120/21/1  121/22/1  37/23/1  35/24/1 
f  121/21/1  122/22/1  39/23/1  37/24/1 
f  122/21/1  123/22/1  41/23/1  39/24/1 
f  123/21/1  124/22/1  43/23/1  41/24/1 
f  124/21/1  125/22/1  45/23/1  43/24/1 
f  125/21/1  126/22/1  47/23/1  45/24/1 
f  126/21/1  127/22/1  49/23/1  47/24/1 
f  127/21/1  128/22/1  51/23/1  49/24/1 
f  128/21/1  129/22/1  53/23/1  51/24/1 
f  129/21/1  130/22/1  55/23/1  53/24/1 
f  130/21/1  131/22/1  57/23/1  55/24/1 
f  131/21/1  132/22/1  59/23/1  57/24/1 
f  132/21/1  133/22/1  61/23/1  59/24/1 
f  133/21/1  134/22/1  63/23/1  61/24/1 
f  134/21/1  135/22/1  65/23/1  63/24/1 
f  135/21/1  136/22/1  67/23/1  65/24/1 
f  136/21/1  137/22/1  69/23/1  67/24/1 
f  137/21/1  138/22/1  71/23/1  69/24/1 
f  138/21/1  139/22/1  73/23/1  71/24/1 
f  139/21/1  140/22/1  75/23/1  73/24/1 
f  140/21/1  141/22/1  77/23/1  75/24/1 
f  141/21/1  142/22/1  79/23/1  77/24/1 
f  142/21/1  143/22/1  81/23/1  79/24/1 
f  143/21/1  144/22/1  83/23/1  81/24/1 
f  144/21/1  145/22/1  85/23/1  83/24/1 
f  145/21/1  146/22/1  87/23/1  85/24/1 
f  146/21/1  147/22/1  89/23/1  87/24/1 
f  147/21/1  148/22/1  91/23/1  89/24/1 
f  148/21/1  149/22/1  93/23/1  91/24/1 
f  149/21/1  150/22/1  95/23/1  93/24/1 
f  150/21/1  151/22/1  97/23/1  95/24/1 
f  151/25/1  152/26/1  99/27/1  97/28/1 
f  152/29/1  153/30/1  101/31/1  99/32/1 
f  154/13/1  155/14/1  104/15/1  103/16/1 
f  155/29/1  156/30/1  105/31/1  104/32/1 
f  157/13/1  158/14/1  152/15/1  151/16/1 
f  158/29/1  159/30/1  153/31/1  152/32/1 
f  160/13/1  161/14/1  155/15/1  154/16/1 
f  161/29/1  162/30/1  156/31/1  155/32/1 
f  163/13/1  164/14/1  158/15/1  157/16/1 
f  164/29/1  165/30/1  159/31/1  158/32/1 
f  166/13/1  167/14/1  161/15/1  160/16/1 
f  167/29/1  168/30/1  162/31/1  161/32/1 
f  169/13/1  170/14/1  164/15/1  163/16/1 
f  170/29/1  171/30/1  165/31/1  164/32/1 
f  172/13/1  173/14/1  167/15/1  166/16/1 
f  173/29/1  174/30/1  168/31/1  167/32/1 
f  175/13/1  176/14/1  170/15/1  169/16/1 
f  176/29/1  177/30/1  171/31/1  170/32/1 
f  178/13/1  179/14/1  173/15/1  172/16/1 
f  179/29/1  180/30/1  174/31/1  173/32/1 
f  181/13/1  182/14/1  176/15/1  175/16/1 
f  182/29/1  183/30/1  177/31/1  176/32/1 
f  184/13/1  185/14/1  179/15/1  178/16/1 
f  185/29/1  186/30/1  180/31/1  179/32/1 
f  187/13/1  188/14/1  182/15/1  181/16/1 
f  188/29/1  189/30/1  183/31/1  182/32/1 
f  190/13/1  191/14/1  185/15/1  184/16/1 
f  191/29/1  192/30/1  186/31/1  185/32/1 
f  193/13/1  194/14/1  188/15/1  187/16/1 
f  194/29/1  195/30/1  189/31/1  188/32/1 
f  196/13/1  197/14/1  191/15/1  190/16/1 
f  197/29/1  198/30/1  192/31/1  191/32/1 
f  199/13/1  200/14/1  194/15/1  193/16/1 
f  200/29/1  201/30/1  195/31/1  194/32/1 
f  202/13/1  203/14/1  197/15/1  196/16/1 
f  203/29/1  204/30/1  198/31/1  197/32/1 
f  205/13/1  206/14/1  200/15/1  199/16/1 
f  206/29/1  207/30/1  201/31/1  200/32/1 
f  208/13/1  209/14/1  203/15/1  202/16/1 
f  209/29/1  210/30/1  204/31/1  203/32/1 
f  211/13/1  212/14/1  206/15/1  205/16/1 
f  212/29/1  213/30/1  207/31/1  206/32/1 
f  214/13/1  215/14/1  209/15/1  208/16/1 
f  215/29/1  216/30/1  210/31/1  209/32/1 
f  217/13/1  218/14/1  212/15/1  211/16/1 
f  218/29/1  219/30/1  213/31/1  212/32/1 
f  220/13/1  221/14/1  215/15/1  214/16/1 
f  221/29/1  222/30/1  216/31/1  215/32/1 
f  223/13/1  224/14/1  218/15/1  217/16/1 
f  224/29/1  225/30/1  219/31/1  218/32/1 
f  226/13/1  227/14/1  221/15/1  220/16/1 
f  227/29/1  228/30/1  222/31/1  221/32/1 
f  229/13/1  230/14/1  224/15/1  223/16/1 
f  230/29/1  231/30/1  225/31/1  224/32/1 
f  232/13/1  233/14/1  227/15/1  226/16/1 
f  233/29/1  234/30/1  228/31/1  227/32/1 
f  235/13/1  236/14/1  230/15/1  229/16/1 
f  236/29/1  237/30/1  231/31/1  230/32/1 
f  238/13/1  239/14/1  233/15/1  232/16/1 
f  239/29/1  240/30/1  234/31/1  233/32/1 
f  241/13/1  242/14/1  236/15/1  235/16/1 
f  242/29/1  243/30/1  237/31/1  236/32/1 
f  244/13/1  245/14/1  239/15/1  238/16/1 
f  245/29/1  246/30/1  240/31/1  239/32/1 
f  247/13/1  248/14/1  242/15/1  241/16/1 
f  248/29/1  249/30/1  243/31/1  242/32/1 
f  250/13/1  251/14/1  245/15/1  244/16/1 
f  251/29/1  252/30/1  246/31/1  245/32/1 
f  253/13/1  254/14/1  248/15/1  247/16/1 
f  254/29/1  255/30/1  249/31/1  248/32/1 
f  256/13/1  257/14/1  251/15/1  250/16/1 
f  257/29/1  258/30/1  252/31/1  251/32/1 
f  259/13/1  260/14/1  254/15/1  253/16/1 
f  260/29/1  261/30/1  255/31/1  254/32/1 
f  262/13/1  263/14/1  257/15/1  256/16/1 
f  263/29/1  264/30/1  258/31/1  257/32/1 
f  265/13/1  266/14/1  260/15/1  259/16/1 
f  266/29/1  267/30/1  261/31/1  260/32/1 
f  268/13/1  269/14/1  263/15/1  262/16/1 
f  269/29/1  270/30/1  264/31/1  263/32/1 
f  271/13/1  272/14/1  266/15/1  265/16/1 
f  272/29/1  273/30/1  267/31/1  266/32/1 
f  274/13/1  275/14/1  269/15/1  268/16/1 
f  275/29/1  276/30/1  270/31/1  269/32/1 
f  277/13/1  278/14/1  272/15/1  271/16/1 
f  278/29/1  279/30/1  273/31/1  272/32/1 
f  280/13/1  281/14/1  275/15/1  274/16/1 
f  281/29/1  282/30/1  276/31/1  275/32/1 
f  283/13/1  284/14/1  278/15/1  277/16/1 
f  284/29/1  285/30/1  279/31/1  278/32/1 
f  286/13/1  287/14/1  281/15/1  280/16/1 
f  287/29/1  288/30/1  282/31/1  281/32/1 
f  289/13/1  290/14/1  284/15/1  283/16/1 
f  290/29/1  291/30/1  285/31/1  284/32/1 
f  292/13/1  293/14/1  287/15/1  286/16/1 
f  293/29/1  294/30/1  288/31/1  287/32/1 
f  295/13/1  296/14/1  290/15/1  289/16/1 
f  296/29/1  297/30/1  291/31/1  290/32/1 
f  298/13/1  299/14/1  293/15/1  292/16/1 
f  299/29/1  300/30/1  294/31/1  293/32/1 
f  301/13/1  302/14/1  296/15/1  295/16/1 
f  302/29/1  303/30/1  297/31/1  296/32/1 
f  304/13/1  305/14/1  299/15/1  298/16/1 
f  305/33/1  306/34/1  300/35/1  299/36/1 
f  306/5/1  307/6/1  308/7/1  300/8/1 
f  307/5/1  309/6/1  310/7/1  308/8/1 
f  309/5/1  311/6/1  312/7/1  310/8/1 
f  311/5/1  313/6/1  314/7/1  312/8/1 
f  313/5/1  315/6/1  316/7/1  314/8/1 
f  315/5/1  317/6/1  318/7/1  316/8/1 
f  317/5/1  319/6/1  320/7/1  318/8/1 
f  319/9/1  321/10/1  322/11/1  320/12/1 
f  323/1/1  324/2/1  325/3/1  326/4/1 
f  324/5/1  327/6/1  328/7/1  325/8/1 
f  327/5/1  329/6/1  330/7/1  328/8/1 
f  329/5/1  331/6/1  332/7/1  330/8/1 
f  331/5/1  333/6/1  334/7/1  332/8/1 
f  333/5/1  335/6/1  336/7/1  334/8/1 
f  335/5/1  337/6/1  338/7/1  336/8/1 
f  337/5/1  339/6/1  301/7/1  338/8/1 
f  339/37/1  340/38/1  302/39/1  301/40/1 
f  340/29/1  341/30/1  303/31/1  302/32/1 
f  342/13/1  343/14/1  305/15/1  304/16/1 
f  343/41/1  344/42/1  306/43/1  305/44/1 
f  344/41/1  345/42/1  307/43/1  306/44/1 
f  345/41/1  346/42/1  309/43/1  307/44/1 
f  346/41/1  347/42/1  311/43/1  309/44/1 
f  347/41/1  348/42/1  313/43/1  311/44/1 
f  348/41/1  349/42/1  315/43/1  313/44/1 
f  349/41/1  350/42/1  317/43/1  315/44/1 
f  350/41/1  351/42/1  319/43/1  317/44/1 
f  412/41/1  413/42/1  327/43/1  324/44/1 
f  413/41/1  414/42/1  329/43/1  327/44/1 
f  414/41/1  415/42/1  331/43/1  329/44/1 
f  415/41/1  416/42/1  333/43/1  331/44/1 
f  416/41/1  417/42/1  335/43/1  333/44/1 
f  417/41/1  418/42/1  337/43/1  335/44/1 
f  418/41/1  419/42/1  339/43/1  337/44/1 
f  419/41/1  420/42/1  340/43/1  339/44/1 
f  420/29/1  421/30/1  341/31/1  340/32/1 
f  422/57/1  423/58/1  343/59/1  342/60/1 
f  423/21/1  424/22/1  344/23/1  343/24/1 
f  424/21/1  425/22/1  345/23/1  344/24/1 
f  425/21/1  426/22/1  346/23/1  345/24/1 
f  426/21/1  427/22/1  347/23/1  346/24/1 
f  427/21/1  428/22/1  348/23/1  347/24/1 
f  428/21/1  429/22/1  349/23/1  348/24/1 
f  429/21/1  430/22/1  350/23/1  349/24/1 
f  430/21/1  431/22/1  351/23/1  350/24/1 
f  431/21/1  432/22/1  352/23/1  351/24/1 
f  432/21/1  433/22/1  353/23/1  352/24/1 
f  433/21/1  434/22/1  355/23/1  353/24/1 
f  434/21/1  435/22/1  357/23/1  355/24/1 
f  435/21/1  436/22/1  359/23/1  357/24/1 
f  436/21/1  437/22/1  361/23/1  359/24/1 
f  437/21/1  438/22/1  363/23/1  361/24/1 
f  438/21/1  439/22/1  365/23/1  363/24/1 
f  439/21/1  440/22/1  367/23/1  365/24/1 
f  440/21/1  441/22/1  369/23/1  367/24/1 
f  441/21/1  442/22/1  371/23/1  369/24/1 
f  442/21/1  443/22/1  373/23/1  371/24/1 
f  443/21/1  444/22/1  375/23/1  373/24/1 
f  444/21/1  445/22/1  377/23/1  375/24/1 
f  445/21/1  446/22/1  379/23/1  377/24/1 
f  446/21/1  447/22/1  381/23/1  379/24/1 
f  447/21/1  448/22/1  383/23/1  381/24/1 
f  448/21/1  449/22/1  385/23/1  383/24/1 
f  449/21/1  450/22/1  387/23/1  385/24/1 
f  450/21/1  451/22/1  389/23/1  387/24/1 
f  451/21/1  452/22/1  391/23/1  389/24/1 
f  452/21/1  453/22/1  393/23/1  391/24/1 
f  453/21/1  454/22/1  395/23/1  393/24/1 
f  454/21/1  455/22/1  397/23/1  395/24/1 
f  455/21/1  456/22/1  399/23/1  397/24/1 
f  456/21/1  457/22/1  401/23/1  399/24/1 
f  457/21/1  458/22/1  403/23/1  401/24/1 
f  458/21/1  459/22/1  405/23/1  403/24/1 
f  459/21/1  460/22/1  407/23/1  405/24/1 
f  460/21/1  461/22/1  409/23/1  407/24/1 
f  461/21/1  462/22/1  411/23/1  409/24/1 
f  462/21/1  463/22/1  412/23/1  411/24/1 
f  463/21/1  464/22/1  413/23/1  412/24/1 
f  464/21/1  465/22/1  414/23/1  413/24/1 
f  465/21/1  466/22/1  415/23/1  414/24/1 
f  466/21/1  467/22/1  416/23/1  415/24/1 
f  467/21/1  468/22/1  417/23/1  416/24/1 
f  468/21/1  469/22/1  418/23/1  417/24/1 
f  469/21/1  470/22/1  419/23/1  418/24/1 
f  470/21/1  471/22/1  420/23/1  419/24/1 
f  471/61/1  472/62/1  421/63/1  420/64/1 
g mesh_[00]_[01]
f  351/45/1  352/46/1  321/47/1  319/48/1 
f  352/49/1  353/50/1  354/51/1  321/52/1 
f  353/49/1  355/50/1  356/51/1  354/52/1 
f  355/49/1  357/50/1  358/51/1  356/52/1 
f  357/49/1  359/50/1  360/51/1  358/52/1 
f  359/49/1  361/50/1  362/51/1  360/52/1 
f  361/49/1  363/50/1  364/51/1  362/52/1 
f  363/49/1  365/50/1  366/51/1  364/52/1 
f  365/49/1  367/50/1  368/51/1  366/52/1 
f  367/49/1  369/50/1  370/51/1  368/52/1 
f  369/49/1  371/50/1  372/51/1  370/52/1 
f  371/49/1  373/50/1  374/51/1  372/52/1 
f  373/49/1  375/50/1  376/51/1  374/52/1 
f  375/49/1  377/50/1  378/51/1  376/52/1 
f  377/49/1  379/50/1  380/51/1  378/52/1 
f  379/49/1  381/50/1  382/51/1  380/52/1 
f  381/49/1  383/50/1  384/51/1  382/52/1 
f  383/49/1  385/50/1  386/51/1  384/52/1 
f  385/49/1  387/50/1  388/51/1  386/52/1 
f  387/49/1  389/50/1  390/51/1  388/52/1 
f  389/49/1  391/50/1  392/51/1  390/52/1 
f  391/49/1  393/50/1  394/51/1  392/52/1 
f  393/49/1  395/50/1  396/51/1  394/52/1 
f  395/49/1  397/50/1  398/51/1  396/52/1 
f  397/49/1  399/50/1  400/51/1  398/52/1 
f  399/49/1  401/50/1  402/51/1  400/52/1 
f  401/49/1  403/50/1  404/51/1  402/52/1 
f  403/49/1  405/50/1  406/51/1  404/52/1 
f  405/49/1  407/50/1  408/51/1  406/52/1 
f  407/49/1  409/50/1  410/51/1  408/52/1 
f  409/49/1  411/50/1  323/51/1  410/52/1 
f  411/53/1  412/54/1  324/55/1  323/56/1 
